<svg xmlns="http://www.w3.org/2000/svg" width="39" height="39"><path fill="#FFF" d="M0 0h39v39H0z"/><path shape-rendering="crispEdges" d="M1 1h7v7H1V7h6V2H2v5H1zm10 0h1v2h-1zm2 0h2v2h-1V2h-1zm4 0h1v1h-1zm3 0h2v1h-2zm3 0h4v1h-2v1h-1v2h-1zm5 0h1v1h-1zm3 0h7v7h-7V7h6V2h-5v5h-1zM9 2h1v1H9zm6 0h2v1h-1v2h-1zM3 3h3v3H3zm10 0h1v1h1v2h-1V5h-1zm6 0h1v1h-1zm6 0h2v1h2v2h-1V5h-2v1h-1zm8 0h3v3h-3zM9 4h3v1H9zm9 0h1v1h-1zm2 0h1v1h2v1h-3zM10 5h1v2h-1zm7 0h1v4h-1zM9 6h1v2H9zm3 0h2v2h-1V7h-1zm4 0h1v1h-1zm8 0h1v1h-1zm2 0h1v1h-1zm3 0h1v2h-1zM11 7h1v2h-2V8h1zm4 0h1v3h-2V9h1zm4 0h1v2h-1zm2 0h1v1h-1zm2 0h1v1h3V7h1v2h-5zm2 0h1v3h-1zM12 8h1v2h-1zM1 9h5v1H2v1H1zm6 0h2v2H8v-1H7zm2 0h2v2h-1v-1H9zm9 0h1v1h-1zm4 0h1v3h-2v-1h1zm6 0h1v1h-1zm2 0h1v1h-1zm2 0h1v1h1v1h-2zm2 0h1v1h-1zm2 0h1v2h-1zM3 10h1v3H1v-1h2zm3 0h1v1H6zm5 0h1v5H8v-1h3zm2 0h2v1h-2zm7 0h1v1h-1zm4 0h1v1h1v1h-2zm5 0h1v2h-1zM2 11h3v3H2zm5 0h1v1H7zm2 0h1v1H9zm5 0h3v1h-3zm5 0h1v2h-1zm12 0h2v1h-2zm3 0h1v1h-1zM8 12h1v1H8zm5 0h1v2h-1zm3 0h2v1h1v1h-3zm4 0h2v2h-2zm3 0h2v1h-2zm3 0h1v1h-1zm2 0h1v1h-1zm2 0h1v1h-1zm5 0h2v1h-2zM5 13h1v1h1v1H5zm2 0h3v1H7zm7 0h1v3h-2v-1h1zm11 0h1v2h-1zm4 0h1v1h-1zm5 0h2v1h2v1h-4zM1 14h3v3H2v-1h1v-1H1zm16 0h1v3h-3v-2h2zm6 0h2v2h-2zm5 0h1v1h-1zm3 0h1v1h1v-1h1v2h-3zM4 15h2v2H5v-1H4zm3 0h1v1H7zm3 0h3v3h-1v-2h-2zm8 0h3v1h-3zm8 0h1v2h1v1h-2zm3 0h1v1h-1zM9 16h2v2H9zm12 0h1v2h-1zm4 0h1v3h-1zm3 0h1v3h-1zm2 0h1v1h-1zm4 0h3v1h-2v2h-1zM1 17h4v2H4v-1H1zm4 0h4v2H8v-1H5zm11 0h1v1h-1zm2 0h3v2h-1v-1h-2zm5 0h1v1h-1zm13 0h2v1h-2zm-25 1h1v1h-1zm2 0h2v3h-1v-2h-1zm4 0h2v2h-1v-1h-1zm5 0h1v1h-1zm8 0h2v3h-1v-2h-1zm3 0h1v2h-2v-1h1zM1 19h1v2H1zm2 0h1v1H3zm3 0h2v1H6zm4 0h1v1h-1zm5 0h2v1h-2zm4 0h3v2h-3zm5 0h1v1h-1zm3 0h1v1h-1zm2 0h1v1h-1zm7 0h1v2h-3v-1h2zM4 20h1v1h3v1H4zm5 0h1v1H9zm2 0h1v1h-1zm2 0h1v2h-1zm4 0h1v1h-1zm6 0h5v1h-5zM3 21h1v2H3zm12 0h1v1h-1zm3 0h3v1h-3zm4 0h1v2h-6v-1h5zm3 0h1v1h-1zm3 0h1v1h-1zm2 0h1v1h-1zm3 0h3v2h-4v-1h1zm4 0h1v1h-1zM5 22h2v1H5zm3 0h1v1H8zm2 0h2v1h-1v1h-1zm14 0h1v3h-2v-1h1zm5 0h1v2h1v1h-2zM1 23h1v7H1zm6 0h1v1H7zm5 0h2v1h-2zm4 0h1v1h-1zm2 0h1v1h-1zm2 0h3v1h-2v2h-1zm7 0h1v2h-1zm4 0h1v1h-1zM2 24h1v2H2zm3 0h1v1H5zm6 0h2v2h-2zm4 0h1v1h-1zm2 0h1v1h-1zm9 0h1v2h-1zm9 0h3v1h-3zM7 25h1v1H7zm11 0h2v2h-2zm4 0h1v1h-1zm6 0h1v1h-1zm4 0h1v1h-1zm2 0h3v1h-3zM4 26h2v1H4zm4 0h1v2h3v2h-1v-1H8zm5 0h3v1h-3zm10 0h1v1h-1zm2 0h1v1h-1zm6 0h1v1h1v1h-2zm2 0h1v1h2v1h-3zM3 27h1v1H3zm3 0h2v1H6zm8 0h5v1h-5zm6 0h2v1h-2zm4 0h1v1h-1zm3 0h1v1h-1zm2 0h1v1h-1zm-16 1h2v1h-1v1h-1zm10 0h1v2h-1zm2 0h4v1h9v1H25zm5 0h1v1h-1zm4 0h2v3h-1v-2h-1zM4 29h2v1H4zm3 0h3v3H9v-2H7zm8 0h2v1h-2zm3 0h1v1h-1zm-8 1h1v2h1v1h-2zm7 0h3v1h-3zm5 0h1v1h-1zm3 0h2v1h-2zm3 0h2v3h-7v-1h5zm5 0h1v2h2v2h-3zM1 31h7v7H1v-1h6v-5H2v5H1zm11 0h2v1h-1v2h-1zm4 0h1v1h-1zm2 0h1v1h-1zm2 0h2v1h-1v1h-1zm4 0h1v1h-1zm7 0h1v1h-1zm5 0h1v1h-1zm-21 1h1v1h-1zM3 33h3v3H3zm6 0h1v4h1v1H9zm7 0h3v1h-3zm6 0h1v2h-1zm3 0h1v1h-1zm4 0h6v2h-1v-1h-4v1h-1zm-16 1h3v1h-3zm4 0h1v2h-4v-1h3zm3 0h2v2h-1v1h-1zm4 0h1v2h-1zm12 0h2v2h-2zm-26 1h2v1h-2zm3 1h2v1h-1v1h-1zm2 1h2v1h-2zm3 0h1v1h-1zm3 0h2v1h-2zm3 0h3v1h-3zm1-2h2v1h1v-1h1v2h-4zm6 0h1v1h1v-1h1v2h-3zm4 0h1v2h1v-1h1v2h-3zm-6 1h1v1h2v1h-3zm5 1h1v1h-1z"/></svg>