<svg xmlns="http://www.w3.org/2000/svg" width="39" height="39">
<path fill="#FFF" d="M0 0h39v39H0z"/>
<path shape-rendering="crispEdges" fill="#000" d="
M1 1h7v7h-7v-1h6v-5h-5v5h-1zm10 0h1v2h-1zm2 0h2v2h-1v-1h-1zm4 0h1v1h-1zm3 0h2v1h-2zm3 0h4v1h-2v1h-1v2h-1zm5 0h1v1h-1zm3 0h7v7h-7v-1h6v-5h-5v5h-1z
M9 2h1v1h-1zm6 0h2v1h-1v2h-1z
M3 3h3v3h-3zm10 0h1v1h1v2h-1v-1h-1zm6 0h1v1h-1zm6 0h2v1h2v2h-1v-1h-2v1h-1zm8 0h3v3h-3z
M9 4h3v1h-3zm9 0h1v1h-1zm2 0h1v1h2v1h-3z
M10 5h1v2h-1zm7 0h1v4h-1z
M9 6h1v2h-1zm3 0h2v2h-1v-1h-1zm4 0h1v1h-1zm8 0h1v1h-1zm2 0h1v1h-1zm3 0h1v2h-1z
M11 7h1v2h-2v-1h1zm4 0h1v3h-2v-1h1zm4 0h1v2h-1zm2 0h1v1h-1zm2 0h1v1h3v-1h1v2h-5zm2 0h1v3h-1z
M12 8h1v2h-1z
M1 9h5v1h-4v1h-1zm6 0h2v2h-1v-1h-1zm2 0h2v2h-1v-1h-1zm9 0h1v1h-1zm4 0h1v3h-2v-1h1zm6 0h1v1h-1zm2 0h1v1h-1zm2 0h1v1h1v1h-2zm2 0h1v1h-1zm2 0h1v2h-1z
M3 10h1v3h-3v-1h2zm3 0h1v1h-1zm5 0h1v5h-4v-1h3zm2 0h2v1h-2zm7 0h1v1h-1zm4 0h1v1h1v1h-2zm5 0h1v2h-1z
M2 11h3v3h-3zm5 0h1v1h-1zm2 0h1v1h-1zm5 0h3v1h-3zm5 0h1v2h-1zm12 0h2v1h-2zm3 0h1v1h-1z
M8 12h1v1h-1zm5 0h1v2h-1zm3 0h2v1h1v1h-3zm4 0h2v2h-2zm3 0h2v1h-2zm3 0h1v1h-1zm2 0h1v1h-1zm2 0h1v1h-1zm5 0h2v1h-2z
M5 13h1v1h1v1h-2zm2 0h3v1h-3zm7 0h1v3h-2v-1h1zm11 0h1v2h-1zm4 0h1v1h-1zm5 0h2v1h2v1h-4z
M1 14h3v3h-2v-1h1v-1h-2zm16 0h1v3h-3v-2h2zm6 0h2v2h-2zm5 0h1v1h-1zm3 0h1v1h1v-1h1v2h-3z
M4 15h2v2h-1v-1h-1zm3 0h1v1h-1zm3 0h3v3h-1v-2h-2zm8 0h3v1h-3zm8 0h1v2h1v1h-2zm3 0h1v1h-1z
M9 16h2v2h-2zm12 0h1v2h-1zm4 0h1v3h-1zm3 0h1v3h-1zm2 0h1v1h-1zm4 0h3v1h-2v2h-1z
M1 17h4v2h-1v-1h-3zm4 0h4v2h-1v-1h-3zm11 0h1v1h-1zm2 0h3v2h-1v-1h-2zm5 0h1v1h-1zm13 0h2v1h-2z
M11 18h1v1h-1zm2 0h2v3h-1v-2h-1zm4 0h2v2h-1v-1h-1zm5 0h1v1h-1zm8 0h2v3h-1v-2h-1zm3 0h1v2h-2v-1h1z
M1 19h1v2h-1zm2 0h1v1h-1zm3 0h2v1h-2zm4 0h1v1h-1zm5 0h2v1h-2zm4 0h3v2h-3zm5 0h1v1h-1zm3 0h1v1h-1zm2 0h1v1h-1zm7 0h1v2h-3v-1h2z
M4 20h1v1h3v1h-4zm5 0h1v1h-1zm2 0h1v1h-1zm2 0h1v2h-1zm4 0h1v1h-1zm6 0h5v1h-5z
M3 21h1v2h-1zm12 0h1v1h-1zm3 0h3v1h-3zm4 0h1v2h-6v-1h5zm3 0h1v1h-1zm3 0h1v1h-1zm2 0h1v1h-1zm3 0h3v2h-4v-1h1zm4 0h1v1h-1z
M5 22h2v1h-2zm3 0h1v1h-1zm2 0h2v1h-1v1h-1zm14 0h1v3h-2v-1h1zm5 0h1v2h1v1h-2z
M1 23h1v7h-1zm6 0h1v1h-1zm5 0h2v1h-2zm4 0h1v1h-1zm2 0h1v1h-1zm2 0h3v1h-2v2h-1zm7 0h1v2h-1zm4 0h1v1h-1z
M2 24h1v2h-1zm3 0h1v1h-1zm6 0h2v2h-2zm4 0h1v1h-1zm2 0h1v1h-1zm9 0h1v2h-1zm9 0h3v1h-3z
M7 25h1v1h-1zm11 0h2v2h-2zm4 0h1v1h-1zm6 0h1v1h-1zm4 0h1v1h-1zm2 0h3v1h-3z
M4 26h2v1h-2zm4 0h1v2h3v2h-1v-1h-3zm5 0h3v1h-3zm10 0h1v1h-1zm2 0h1v1h-1zm6 0h1v1h1v1h-2zm2 0h1v1h2v1h-3z
M3 27h1v1h-1zm3 0h2v1h-2zm8 0h5v1h-5zm6 0h2v1h-2zm4 0h1v1h-1zm3 0h1v1h-1zm2 0h1v1h-1z
M13 28h2v1h-1v1h-1zm10 0h1v2h-1zm2 0h4v1h9v1h-13zm5 0h1v1h-1zm4 0h2v3h-1v-2h-1z
M4 29h2v1h-2zm3 0h3v3h-1v-2h-2zm8 0h2v1h-2zm3 0h1v1h-1z
M10 30h1v2h1v1h-2zm7 0h3v1h-3zm5 0h1v1h-1zm3 0h2v1h-2zm3 0h2v3h-7v-1h5zm5 0h1v2h2v2h-3z
M1 31h7v7h-7v-1h6v-5h-5v5h-1zm11 0h2v1h-1v2h-1zm4 0h1v1h-1zm2 0h1v1h-1zm2 0h2v1h-1v1h-1zm4 0h1v1h-1zm7 0h1v1h-1zm5 0h1v1h-1z
M15 32h1v1h-1z
M3 33h3v3h-3zm6 0h1v4h1v1h-2zm7 0h3v1h-3zm6 0h1v2h-1zm3 0h1v1h-1zm4 0h6v2h-1v-1h-4v1h-1z
M13 34h3v1h-3zm4 0h1v2h-4v-1h3zm3 0h2v2h-1v1h-1zm4 0h1v2h-1zm12 0h2v2h-2z
M10 35h2v1h-2zm3 1h2v1h-1v1h-1zm2 1h2v1h-2zm3 0h1v1h-1zm3 0h2v1h-2zm3 0h3v1h-3zm1 -2h2v1h1v-1h1v2h-4zm6 0h1v1h1v-1h1v2h-3zm4 0h1v2h1v-1h1v2h-3zm-6 1h1v1h2v1h-3zm5 1h1v1h-1z
" />
</svg>
