<svg xmlns="http://www.w3.org/2000/svg" width="190.917" height="190.918"><path d="M7.424 102.884 0 95.459l7.424-7.425 7.425-7.424 7.424 7.424 7.426 7.425-7.425 7.425-7.424 7.424zm2.122-2.122 5.303 5.304 5.303-5.304 5.303-5.303-5.303-5.303-5.303-5.304-5.303 5.304-5.304 5.303zm2.12-2.121-3.18-3.182 3.182-3.182 3.182-3.182 3.182 3.182 3.181 3.182-3.182 3.182-3.182 3.182zm20.153 28.638-2.12-2.122 1.06-1.06 1.06-1.06-1.06-1.062-1.06-1.06 2.12-2.121 2.122-2.122-1.06-1.06-1.062-1.061 1.061-1.06 1.06-1.061 1.061 1.06 1.061 1.06 2.121-2.12 2.122-2.122-2.122-2.121-2.121-2.121-4.243 4.242-4.242 4.243 1.06 1.06 1.061 1.061-1.06 1.06-1.061 1.062-3.182-3.182-3.182-3.182 1.06-1.061 1.061-1.06-1.06-1.061-1.061-1.061 1.06-1.06 1.061-1.061 1.06 1.06 1.061 1.06-1.06 1.062-1.06 1.06 1.06 1.06 1.06 1.062 2.122-2.122 2.121-2.121-2.121-2.121-2.122-2.122 2.122-2.121 2.121-2.121 1.06 1.06 1.061 1.061 1.061-1.06 1.06-1.061-1.06-1.061-1.06-1.06 2.12-2.122 2.122-2.121-1.06-1.061-1.061-1.06-1.06 1.06-1.062 1.06-1.06-1.06-1.06-1.06 1.06-1.061 1.06-1.061 1.061 1.06 1.06 1.061 1.061-1.06 1.061-1.061-1.06-1.06-1.061-1.061 1.06-1.06 1.061-1.062-1.06-1.06-1.061-1.06 4.242-4.244 4.243-4.242 2.121 2.121 2.122 2.121 1.06-1.06 1.061-1.06-1.06-1.062-1.061-1.06 1.06-1.06 1.061-1.062 1.06 1.061 1.061 1.06 1.06-1.06 1.062-1.06 1.06 1.06 1.06 1.06 1.062-1.06 1.06-1.06-1.06-1.061-1.061-1.06 1.06-1.062 1.061-1.06-3.182-3.182-3.182-3.182 1.06-1.06 1.062-1.061-1.061-1.061-1.06-1.06 1.06-1.061 1.06-1.061 1.061 1.06 1.06 1.061 3.183-3.182 3.182-3.182-1.06-1.06-1.061-1.061-1.061 1.06-1.06 1.061-1.061-1.06-1.061-1.061-1.06 1.06-1.061 1.061-1.061-1.06-1.06-1.061-2.122 2.121-2.121 2.122 1.06 1.06 1.061 1.06-2.121 2.122-2.122 2.122 1.061 1.06 1.06 1.06-2.12 2.122-2.122 2.122 1.06 1.06 1.061 1.06-1.06 1.061-1.061 1.061-1.06-1.06-1.061-1.061-1.061 1.06-1.06 1.061-1.061-1.06-1.061-1.061 2.121-2.121 2.122-2.122-1.061-1.06-1.06-1.061-1.061 1.06-1.061 1.061-1.06-1.06-1.061-1.061 1.06-1.06 1.061-1.061 1.06 1.06 1.061 1.06 1.061-1.06 1.06-1.06-1.06-1.061-1.06-1.06 1.06-1.061 1.06-1.061 1.061 1.06 1.061 1.061 2.121-2.121 2.122-2.121-1.061-1.061-1.06-1.06 2.12-2.122 2.122-2.121 1.06 1.06 1.061 1.061 1.06-1.06 1.062-1.061-1.061-1.061-1.06-1.06 1.06-1.061 1.06-1.061 1.061 1.06 1.06 1.061 1.062-1.06 1.06-1.061-1.06-1.06-1.061-1.061 1.06-1.061 1.061-1.06 1.06 1.06 1.062 1.06 1.06-1.06 1.06-1.06 1.062 1.06 1.06 1.06 1.06-1.06 1.062-1.06 2.12 2.12 2.122 2.122 1.06-1.06 1.061-1.061-2.12-2.122-2.122-2.121-1.06 1.06-1.061 1.061-2.122-2.121-2.121-2.121 1.06-1.06 1.061-1.062 1.06 1.061 1.062 1.06 2.12-2.12 2.122-2.122 2.121 2.121 2.122 2.122-1.06 1.06-1.062 1.061 1.061 1.06 1.06 1.061 2.122-2.121 2.121-2.121-2.12-2.122-2.122-2.12 1.06-1.062 1.061-1.06 3.182 3.182 3.182 3.182-1.06 1.06-1.061 1.061 2.121 2.121 2.121 2.122 1.061-1.061 1.06-1.06-2.12-2.122-2.122-2.121 1.06-1.06 1.061-1.062-1.06-1.06-1.06-1.06 2.12-2.122 2.122-2.122 3.182 3.182 3.182 3.182-1.061 1.061-1.06 1.06-2.122-2.12-2.121-2.122-1.06 1.06-1.062 1.061 2.122 2.122 2.121 2.121-1.06 1.06-1.061 1.061 1.06 1.061 1.061 1.06-1.06 1.061-1.061 1.061 1.06 1.06 1.061 1.061 1.06-1.06 1.061-1.061 1.061 1.06 1.06 1.061 1.061-1.06 1.061-1.061 1.06 1.06 1.061 1.061-1.06 1.061-1.061 1.06-1.06-1.06-1.061-1.06-1.061 1.06-1.06 1.06 2.12 2.122 2.122 2.121 1.06-1.06 1.061-1.061 1.061 1.06 1.06 1.061-2.12 2.122-2.122 2.12 1.06 1.062 1.061 1.06-1.06 1.06-1.061 1.062 2.121 2.12 2.122 2.122-4.243 4.243-4.243 4.242 1.061 1.061 1.06 1.06-2.12 2.122-2.122 2.121 1.06 1.061 1.061 1.06 2.122-2.12 2.121-2.122 2.121 2.121 2.122 2.122 1.06-1.06 1.061-1.062-3.182-3.182-3.182-3.182 3.182-3.182 3.182-3.181-1.06-1.061-1.061-1.06 1.06-1.061 1.061-1.061-1.06-1.06-1.061-1.061 1.06-1.061 1.061-1.06-1.06-1.061-1.061-1.061 1.06-1.06 1.061-1.061 2.121 2.12 2.122 2.122 1.06-1.06 1.06-1.061 1.062 1.06 1.06 1.061-2.121 2.122-2.121 2.12 1.06 1.062 1.06 1.06-1.06 1.06-1.06 1.062 2.12 2.12 2.122 2.122 1.06-1.06 1.062-1.061-2.122-2.121-2.121-2.122 2.121-2.121 2.122-2.121-1.061-1.061-1.06-1.06 1.06-1.061 1.06-1.061 2.122 2.121 2.121 2.122-2.121 2.12-2.121 2.122 1.06 1.06 1.06 1.062-1.06 1.06-1.06 1.06 1.06 1.061 1.06 1.061-1.06 1.06-1.06 1.061-1.061-1.06-1.06-1.06-2.122 2.12-2.121 2.122-2.122-2.122-2.121-2.12-1.06 1.06-1.061 1.06 2.121 2.122 2.121 2.121-1.06 1.06-1.061 1.061 1.06 1.061 1.061 1.06-1.06 1.061-1.061 1.061 1.06 1.06 1.061 1.061 2.122-2.12 2.12-2.122-1.06-1.06-1.06-1.062 2.12-2.12 2.122-2.122 1.06 1.06 1.062 1.061-2.122 2.121-2.121 2.122 1.06 1.06 1.061 1.061 1.06-1.06 1.062-1.061 1.06 1.06 1.06 1.061 1.062-1.06 1.06-1.061-1.06-1.06-1.061-1.062 2.121-2.12 2.122-2.122-1.061-1.06-1.06-1.062 1.06-1.06 1.06-1.06 1.061 1.06 1.06 1.06 1.061-1.06 1.061-1.06 1.06 1.06 1.061 1.06-1.06 1.061-1.06 1.06-1.062-1.06-1.06-1.06-1.06 1.06-1.061 1.06 1.06 1.061 1.06 1.061 1.061-1.06 1.061-1.061 2.121 2.121 2.122 2.121-1.06 1.061-1.062 1.06-1.06-1.06-1.06-1.06-3.183 3.181-3.182 3.182 1.06 1.061 1.062 1.06 1.06-1.06 1.06-1.06 1.061 1.06 1.061 1.06 1.06-1.06 1.061-1.06-1.06-1.061-1.06-1.06 1.06-1.062 1.06-1.06 1.061 1.06 1.06 1.061 3.183-3.182 3.182-3.182 2.121 2.121 2.121 2.122 2.122-2.122 2.121-2.12 1.06 1.06 1.061 1.06-1.06 1.061-1.061 1.06 1.06 1.061 1.061 1.061-1.06 1.06-1.061 1.061-1.06-1.06-1.061-1.06-1.06 1.06-1.062 1.06 1.061 1.061 1.06 1.06-1.06 1.061-1.06 1.061 1.06 1.06 1.06 1.061 1.061-1.06 1.061-1.061 1.06 1.06 1.061 1.061 1.061-1.06 1.06-1.061-1.06-1.06-1.06-1.061 1.06-1.06 1.06-1.062 2.122 2.122 2.121 2.121 2.122-2.121 2.121-2.122-1.06-1.06-1.061-1.06-1.061 1.06-1.06 1.06-1.061-1.06-1.061-1.06 2.121-2.122 2.122-2.122 2.121 2.122 2.121 2.121 1.06-1.06 1.062-1.061 1.06 1.06 1.06 1.061 3.183-3.182 3.182-3.182 1.06 1.06 1.061 1.061 1.06-1.06 1.062-1.06 1.06 1.06 1.06 1.06-1.06 1.061-1.06 1.06-1.061-1.06-1.06-1.06-2.122 2.12-2.121 2.122 1.06 1.06 1.06 1.061-2.12 2.122-2.122 2.121-3.182-3.182-3.182-3.182-1.06 1.06-1.061 1.061 1.06 1.061 1.061 1.06-2.121 2.122-2.121 2.121-1.061-1.06-1.06-1.061-2.122 2.121-2.121 2.122-1.061-1.061-1.06-1.06-1.061 1.06-1.061 1.06-1.06-1.06-1.061-1.06-2.122 2.12-2.12 2.122 1.06 1.06 1.06 1.061 1.061-1.06 1.06-1.061 1.061 1.06 1.061 1.061 1.06-1.06 1.061-1.061 1.061 1.06 1.06 1.061 3.183-3.182 3.182-3.182 1.06 1.061 1.061 1.06 2.121-2.12 2.122-2.122 1.06 1.06 1.06 1.061-2.12 2.122-2.122 2.121 1.061 1.06 1.06 1.061-2.12 2.122-2.122 2.121 1.06 1.06 1.061 1.061-1.06 1.06-1.061 1.062-1.06-1.061-1.061-1.06-1.061 1.06-1.06 1.06-1.061-1.06-1.061-1.06 1.06-1.061 1.061-1.061-1.06-1.06-1.061-1.061-1.06 1.06-1.061 1.061-2.122-2.121-2.121-2.122-1.06 1.061-1.061 1.06-1.06-1.06-1.062-1.06-1.06 1.06-1.06 1.06-1.062-1.06-1.06-1.06-1.06 1.06-1.062 1.06-2.12-2.12-2.122-2.122 2.121-2.121 2.121-2.122 1.061 1.061 1.06 1.06 1.061-1.06 1.061-1.06-1.06-1.061-1.061-1.061 1.06-1.06 1.061-1.061-1.06-1.06-1.061-1.062 1.06-1.06 1.061-1.06-1.06-1.062-1.061-1.06-1.06 1.06-1.062 1.061 1.061 1.06 1.06 1.061-2.12 2.122-2.122 2.121-1.06-1.06-1.061-1.061-1.06 1.06-1.062 1.061-1.06-1.06-1.06-1.061-3.183 3.182-3.182 3.182 1.06 1.06 1.062 1.061-1.061 1.06-1.06 1.061 1.06 1.061 1.06 1.06 1.061-1.06 1.06-1.06-1.06-1.061-1.06-1.061 2.12-2.121 2.122-2.122 2.121 2.122 2.122 2.121-1.06 1.06-1.062 1.061 2.122 2.122 2.121 2.121 1.06-1.06 1.061-1.061 2.122 2.121 2.121 2.121-1.06 1.06-1.061 1.062 1.06 1.06 1.061 1.06-1.06 1.062-1.061 1.06-1.06-1.06-1.062-1.061-1.06 1.06-1.06 1.061 1.06 1.06 1.06 1.062 1.061-1.061 1.06-1.06 1.061 1.06 1.061 1.06-1.06 1.061-1.061 1.06 1.06 1.062 1.061 1.06-2.121 2.122-2.122 2.12 1.061 1.061 1.06 1.061 1.061-1.06 1.061-1.061 2.121 2.121 2.122 2.121 1.06-1.06 1.061-1.06 3.182 3.181 3.182 3.182 3.182-3.182 3.182-3.182-1.06-1.06-1.061-1.061 1.06-1.06 1.061-1.061-2.121-2.122-2.122-2.121-1.06 1.06-1.061 1.061-1.06-1.06-1.061-1.061 2.121-2.121 2.121-2.122-1.06-1.06-1.061-1.061 1.06-1.06 1.061-1.061 1.061 1.06 1.06 1.06 1.061-1.06 1.061-1.06 1.06 1.06 1.061 1.06 1.061-1.06 1.06-1.06 1.061 1.06 1.06 1.06-1.06 1.062-1.06 1.06-1.061-1.06-1.06-1.061-2.122 2.121-2.121 2.122 2.121 2.12 2.121 2.122 2.122-2.121 2.12-2.121 1.062 1.06 1.06 1.06-2.121 2.122-2.121 2.122 1.06 1.06 1.06 1.06 1.062-1.06 1.06-1.06 1.06 1.06 1.062 1.06-1.061 1.061-1.06 1.061-1.061-1.06-1.061-1.061-2.121 2.121-2.122 2.121 1.061 1.061 1.06 1.06-1.06 1.061-1.06 1.061-1.061-1.06-1.061-1.061-1.06 1.06-1.061 1.061 1.06 1.06 1.061 1.061-2.121 2.122-2.122 2.121-1.06-1.06-1.061-1.061-1.06 1.06-1.061 1.061 1.06 1.06 1.061 1.061-3.182 3.182-3.182 3.182-3.182-3.182-3.182-3.182-1.06 1.061-1.061 1.06 1.06 1.061 1.061 1.061-2.121 2.121-2.122 2.122-1.06-1.061-1.06-1.06 1.06-1.061 1.06-1.061-3.182-3.182-3.182-3.182-1.06 1.06-1.06 1.061-1.061-1.06-1.061-1.06-2.121 2.12-2.122 2.122 2.122 2.121 2.12 2.121 1.062-1.06 1.06-1.061 1.06 1.06 1.061 1.061-1.06 1.061-1.06 1.06-1.061-1.06-1.061-1.06-1.06 1.06-1.061 1.06-2.122-2.12-2.121-2.122 1.06-1.06 1.061-1.061-1.06-1.06-1.061-1.062 3.182-3.182 3.182-3.182-1.06-1.06-1.061-1.06 1.06-1.062 1.06-1.06-1.06-1.06-1.06-1.062 1.06-1.06 1.06-1.06 1.062 1.06 1.06 1.06 4.243-4.242 4.242-4.243-1.06-1.06-1.06-1.061-1.062 1.06-1.06 1.061-1.06-1.06-1.062-1.061 1.061-1.06 1.06-1.061-1.06-1.061-1.06-1.06-4.243 4.242-4.243 4.243-2.121-2.122-2.121-2.121-1.061 1.06-1.06 1.061-1.061-1.06-1.061-1.061 3.182-3.182 3.182-3.182 1.06 1.06 1.061 1.061-1.06 1.06-1.061 1.062 1.06 1.06 1.061 1.06 1.06-1.06 1.062-1.06-1.061-1.061-1.06-1.06 1.06-1.061 1.06-1.061-1.06-1.06-1.06-1.061 1.06-1.061 1.06-1.06-1.06-1.061-1.06-1.061-1.061 1.06-1.061 1.061-1.06-1.06-1.061-1.061-1.061 1.06-1.06 1.061-2.122-2.121-2.121-2.121-1.061 1.06-1.06 1.061 1.06 1.06 1.06 1.061-1.06 1.06-1.06 1.062-2.122-2.122-2.121-2.121-2.122 2.121-2.121 2.122-1.06-1.061-1.061-1.06-1.061 1.06-1.06 1.06-1.061-1.06-1.061-1.06-1.06 1.06-1.061 1.06 1.06 1.061 1.061 1.06-2.121 2.122-2.122 2.122-1.06-1.061-1.06-1.06 2.12-2.122 2.122-2.121-1.06-1.061-1.062-1.06-4.242 4.242-4.243 4.243 1.06 1.06 1.061 1.06 1.061-1.06 1.06-1.06 1.061 1.06 1.061 1.06-1.06 1.062-1.061 1.06 1.06 1.06 1.061 1.062 2.121-2.122 2.122-2.121 1.06 1.06 1.061 1.061 1.06-1.06 1.061-1.061 2.122 2.121 2.121 2.122 1.06-1.061 1.061-1.06-2.121-2.122-2.121-2.121 1.06-1.061 1.061-1.06 2.121 2.12 2.122 2.122-1.061 1.06-1.06 1.061 2.12 2.122 2.122 2.12 2.121-2.12 2.122-2.122 1.06 1.06 1.06 1.062-2.12 2.12-2.122 2.122 1.06 1.06 1.062 1.061-2.122 2.122-2.121 2.121 1.06 1.06 1.061 1.061 1.06-1.06 1.062-1.06 1.06 1.06 1.06 1.06 1.062-1.06 1.06-1.06-2.121-2.122-2.121-2.122 1.06-1.06 1.06-1.06 1.062 1.06 1.06 1.06 1.06-1.06 1.062-1.06-1.061-1.062-1.06-1.06 1.06-1.06 1.06-1.061 1.061 1.06 1.06 1.06 1.062-1.06 1.06-1.06 1.06 1.06 1.062 1.06-1.061 1.061-1.06 1.061 1.06 1.06 1.06 1.061-1.06 1.061-1.06 1.06-1.061-1.06-1.061-1.06-1.06 1.06-1.061 1.06 2.12 2.122 2.122 2.121-2.121 2.122-2.121 2.121-2.122-2.121-2.121-2.122-1.06 1.061-1.061 1.06-1.061-1.06-1.06-1.06-1.061 1.06-1.061 1.06 1.06 1.061 1.061 1.061-1.06 1.06-1.061 1.061 2.121 2.122 2.122 2.121 1.06-1.06 1.06-1.061-1.06-1.06-1.06-1.062 1.06-1.06 1.06-1.06 1.062 1.06 1.06 1.06-1.06 1.061-1.061 1.06 1.06 1.061 1.061 1.061-2.121 2.121-2.121 2.122 1.06 1.06 1.06 1.061-1.06 1.06-1.06 1.061 1.06 1.061 1.06 1.06-1.06 1.061-1.06 1.061-1.061-1.06-1.06-1.061-2.122 2.121-2.121 2.121 2.121 2.122 2.121 2.12 1.06-1.06 1.062-1.06 1.06 1.06 1.06 1.06-1.06 1.062-1.06 1.06 1.06 1.06 1.06 1.062-2.12 2.12-2.122 2.122-1.06-1.06-1.061-1.061-1.06 1.06-1.061 1.061 1.06 1.06 1.061 1.062-1.06 1.06-1.061 1.06-1.061-1.06-1.06-1.06-1.061 1.06-1.061 1.06-3.182-3.181-3.182-3.182-4.243 4.243-4.242 4.242-1.06-1.06-1.062-1.061 1.061-1.06 1.06-1.061-1.06-1.061-1.06-1.06 1.06-1.061 1.06-1.061-1.06-1.06-1.06-1.061-1.061 1.06-1.06 1.06 1.06 1.062 1.06 1.06-1.06 1.06-1.06 1.062-1.062-1.061-1.06-1.06 1.06-1.061 1.061-1.061-1.06-1.06-1.061-1.061 1.06-1.061 1.061-1.06-2.121-2.122-2.122-2.121-2.12 2.12-2.122 2.122-2.121-2.121-2.122-2.121 1.06-1.061 1.062-1.06-1.061-1.061-1.06-1.061-1.061 1.06-1.061 1.061-1.06-1.06-1.061-1.061 1.06-1.06 1.06-1.061-1.06-1.061-1.06-1.06-1.061 1.06-1.06 1.06-1.061-1.06-1.061-1.06 1.06-1.061 1.061-1.061 1.06 1.06 1.062 1.061 1.06-1.06 1.06-1.061-1.06-1.06-1.06-1.061 1.06-1.061 1.06-1.06 1.062 1.06 1.06 1.06 1.06-1.06 1.062-1.06 1.06 1.06 1.06 1.06-1.06 1.061-1.06 1.061 1.06 1.06 1.06 1.061 1.061-1.06 1.061-1.061 2.121 2.121 2.122 2.122 1.06-1.061 1.061-1.06 1.06 1.06 1.061 1.06 1.061-1.06 1.06-1.06-1.06-1.061-1.06-1.061-1.061 1.06-1.06 1.061-1.062-1.06-1.06-1.061 1.06-1.06 1.061-1.061 1.06 1.06 1.061 1.061 1.061-1.06 1.06-1.061 2.122 2.121 2.121 2.121-1.06 1.061-1.06 1.06 1.06 1.061 1.06 1.061-1.06 1.06-1.06 1.061 1.06 1.06 1.06 1.062-1.06 1.06-1.06 1.06-1.062-1.06-1.06-1.06-1.06 1.06-1.062 1.06 1.061 1.062 1.06 1.06 1.061-1.06 1.061-1.061 1.06 1.06 1.061 1.061 1.061-1.06 1.06-1.061-1.06-1.06-1.06-1.061 1.06-1.061 1.06-1.06 1.061 1.06 1.061 1.06 3.182-3.181 3.182-3.182 1.06 1.06 1.061 1.061 2.122-2.121 2.121-2.122-1.06-1.06-1.061-1.061 1.06-1.06 1.061-1.061-1.06-1.061-1.061-1.06 1.06-1.061 1.061-1.061-1.06-1.06-1.061-1.061-1.061 1.06-1.06 1.061-2.122-2.121-2.121-2.122 1.06-1.06 1.061-1.06 2.121 2.12 2.122 2.122 1.06-1.06 1.061-1.062-1.06-1.06-1.061-1.06 1.06-1.062 1.061-1.06-1.06-1.06-1.061-1.062-1.061 1.061-1.06 1.06-2.122-2.12-2.121-2.122 2.121-2.121 2.121-2.122-1.06-1.06-1.061-1.06-2.121 2.12-2.122 2.122-1.06-1.06-1.061-1.062-2.121 2.122-2.122 2.121 2.122 2.121 2.121 2.122 1.06-1.06 1.061-1.062 1.061 1.061 1.06 1.06-3.181 3.183-3.182 3.182 1.06 1.06 1.061 1.061 1.06-1.06 1.061-1.061 2.122 2.121 2.121 2.121-1.06 1.061-1.061 1.06 1.06 1.061 1.061 1.061 1.06-1.06 1.061-1.061 1.061 1.06 1.06 1.061-2.12 2.121-2.122 2.122-2.121-2.122-2.122-2.121 1.061-1.06 1.06-1.061-1.06-1.061-1.06-1.06-2.122 2.12-2.121 2.122-2.122-2.121-2.12-2.122 1.06-1.06 1.06-1.061-2.12-2.121-2.122-2.122 1.06-1.06 1.061-1.06 1.06 1.06 1.061 1.06 1.061-1.06 1.06-1.06-1.06-1.062-1.06-1.06-1.061 1.06-1.06 1.061-1.062-1.06-1.06-1.061-1.06 1.06-1.062 1.061 1.061 1.06 1.06 1.061-1.06 1.061-1.06 1.06 1.06 1.061 1.06 1.061-1.06 1.06-1.06 1.061-2.122-2.121-2.121-2.121 2.121-2.122 2.121-2.12-1.06-1.062-1.06-1.06 3.181-3.182 3.182-3.182-1.06-1.06-1.061-1.062-1.06 1.061-1.062 1.06-2.12-2.12-2.122-2.122 1.06-1.06 1.061-1.061 1.06 1.06 1.061 1.061 1.061-1.06 1.06-1.061-1.06-1.06-1.06-1.061 1.06-1.061 1.06-1.06-1.06-1.061-1.06-1.061-1.061 1.06-1.06 1.061-1.062-1.06-1.06-1.061 1.06-1.06 1.061-1.061-1.06-1.061-1.061-1.06-1.06 1.06-1.062 1.06-1.06-1.06-1.06-1.06 1.06-1.061 1.06-1.061-1.06-1.06-1.06-1.061-1.062 1.06-1.06 1.06-1.06-1.06-1.061-1.06-1.061 1.06-1.06 1.06 1.06 1.062 1.06 1.06 1.061-1.06 1.06-1.061 1.061 1.06 1.061 1.061-2.121 2.122-2.121 2.12-2.122-2.12-2.121-2.122-1.06 1.06-1.061 1.062 2.12 2.12 2.122 2.122-1.06 1.06-1.061 1.062 1.06 1.06 1.061 1.06 1.06-1.06 1.062-1.06 1.06 1.06 1.06 1.06 1.061-1.06 1.061-1.06 1.06 1.06 1.061 1.06-1.06 1.061-1.06 1.061 2.12 2.121 2.122 2.122-1.06 1.06-1.062 1.061 1.061 1.06 1.06 1.061-1.06 1.061-1.06 1.06 1.06 1.061 1.06 1.061-4.242 4.243-4.242 4.242-6.364-6.364-6.364-6.364-3.182 3.182-3.182 3.182 4.242 4.243 4.243 4.243-1.06 1.06-1.061 1.061-6.364-6.364-6.364-6.364 1.06-1.06 1.061-1.061 1.06 1.06 1.061 1.061 1.061-1.06 1.06-1.061-1.06-1.06-1.06-1.062 1.06-1.06 1.06-1.06 1.061 1.06 1.061 1.06 1.06-1.06 1.061-1.06-1.06-1.062-1.061-1.06-1.06 1.06-1.061 1.061-1.061-1.06-1.06-1.061 1.06-1.06 1.06-1.062-1.06-1.06-1.06-1.06 2.12-2.122 2.122-2.121 1.06 1.06 1.061 1.06-1.06 1.061-1.061 1.061 1.06 1.06 1.061 1.061 1.06-1.06 1.062-1.06-1.061-1.062-1.06-1.06 2.12-2.121 2.122-2.122 1.06 1.06 1.061 1.062 1.06-1.061 1.062-1.06-1.061-1.061-1.06-1.061-1.061 1.06-1.061 1.061-1.06-1.06-1.061-1.061 1.06-1.06 1.06-1.061-1.06-1.061-1.06-1.06-1.061 1.06-1.06 1.06 1.06 1.061 1.06 1.06-1.06 1.062-1.06 1.06-1.061-1.06-1.061-1.061-1.06 1.06-1.061 1.061-2.122-2.121-2.121-2.121-2.121 2.12-2.122 2.122 1.061 1.06 1.06 1.062 1.061-1.061 1.061-1.06 1.06 1.06 1.061 1.06-1.06 1.061-1.061 1.06-1.06-1.06-1.061-1.06-1.061 1.06-1.06 1.06 1.06 1.061 1.06 1.061-3.181 3.182-3.182 3.182zm1.061-3.182 1.06 1.06 2.122-2.12 2.121-2.122-1.06-1.06-1.061-1.061 1.06-1.061 1.061-1.06-1.06-1.061-1.061-1.061-1.06 1.06-1.061 1.061 1.06 1.06 1.061 1.062-2.121 2.12-2.122 2.122zm42.426 33.94 1.061 1.062 1.06-1.061 1.061-1.06-1.06-1.061-1.06-1.061-1.062 1.06-1.06 1.061zm-44.547-53.031 1.06 1.06 1.061-1.06 1.06-1.06 1.061 1.06 1.061 1.06 1.06-1.06 1.061-1.06 1.061 1.06 1.06 1.06 2.122-2.12 2.121-2.122 1.061 1.06 1.06 1.061 1.061-1.06 1.061-1.061 1.06 1.06 1.061 1.061-1.06 1.06-1.061 1.062-1.06-1.061-1.061-1.06-2.122 2.12-2.121 2.122 1.06 1.06 1.061 1.061 1.061-1.06 1.06-1.061 1.061 1.06 1.061 1.061 3.182-3.182 3.182-3.182-4.243-4.242-4.242-4.244 1.06-1.06 1.061-1.061-5.303-5.304-5.304-5.303-1.06 1.06-1.061 1.061 1.06 1.061 1.061 1.06-1.06 1.061-1.061 1.061 1.06 1.06 1.061 1.061 1.061-1.06 1.06-1.061 1.061 1.06 1.061 1.061-4.243 4.243-4.242 4.243 1.06 1.06 1.061 1.061-1.06 1.06-1.061 1.061-1.061-1.06-1.06-1.061-1.061 1.06-1.06 1.061zm27.577 27.577 3.182 3.182 3.182-3.182 3.182-3.182-3.182-3.182-3.182-3.182-3.182 3.182-3.182 3.182zm2.121-2.121-1.06-1.06 1.06-1.062 1.06-1.06 1.062 1.06 1.06 1.061-1.06 1.06-1.061 1.061zm4.243 8.485 1.06 1.06 1.061-1.06 1.06-1.06-1.06-1.061-1.06-1.06-1.061 1.06-1.06 1.06zm27.577 27.577 3.182 3.182 3.182-3.182 3.182-3.182-3.182-3.182-3.182-3.182-3.182 3.182-3.182 3.182zm2.121-2.121-1.06-1.06 1.06-1.061 1.061-1.061 1.06 1.06 1.061 1.061-1.06 1.06-1.061 1.062zm-38.183-55.155 1.06 1.06 1.06-1.06 1.062-1.061-1.061-1.06-1.06-1.061-1.061 1.06-1.061 1.06zm-4.243-12.729 1.06 1.06 1.061-1.06 1.06-1.061 1.062 1.06 1.06 1.061-1.06 1.061-1.061 1.06 3.182 3.183 3.182 3.182 2.121-2.122 2.122-2.121-1.061-1.06-1.06-1.061 1.06-1.061 1.06-1.06 2.122 2.12 2.121 2.122 2.121-2.121 2.122-2.122-1.06-1.06-1.062-1.061-1.06 1.06-1.06 1.061-1.062-1.06-1.06-1.061 2.121-2.121 2.121-2.122 1.061 1.061 1.06 1.06 1.061-1.06 1.061-1.06 2.121 2.12 2.122 2.122-1.06 1.06-1.062 1.061 1.061 1.061 1.06 1.06 1.061-1.06 1.061-1.06 1.06 1.06 1.061 1.06-1.06 1.061-1.06 1.061 1.06 1.06 1.06 1.061 1.061-1.06 1.06-1.061 1.061 1.06 1.061 1.061 1.06-1.06 1.061-1.061-3.182-3.182-3.182-3.182-1.06 1.06-1.06 1.061-1.062-1.06-1.06-1.061 1.06-1.06 1.061-1.061-1.06-1.061-1.061-1.06 1.06-1.061 1.061-1.061-1.06-1.06-1.061-1.061 1.06-1.06 1.061-1.062-1.06-1.06-1.061-1.06-1.06 1.06-1.062 1.06 1.061 1.061 1.06 1.06-2.12 2.122-2.122 2.121-1.06-1.06-1.061-1.061-1.06 1.06-1.062 1.061-1.06-1.06-1.06-1.061-1.062 1.06-1.06 1.061-1.06-1.06-1.061-1.061 2.12-2.121 2.122-2.122 1.06 1.061 1.061 1.06 1.061-1.06 1.06-1.06-1.06-1.061-1.06-1.06 1.06-1.062 1.06-1.06-2.12-2.122-2.122-2.12 1.06-1.062 1.061-1.06 1.061 1.06 1.06 1.061 1.061-1.06 1.061-1.061 1.06 1.06 1.061 1.061 1.061-1.06 1.06-1.061-2.12-2.122-2.122-2.12-1.06 1.06-1.061 1.06-3.182-3.182-3.182-3.181-1.06 1.06-1.061 1.06 1.06 1.061 1.06 1.061-1.06 1.06-1.06 1.061 1.06 1.061 1.06 1.06-1.06 1.061-1.06 1.061-1.061-1.06-1.06-1.061-3.183 3.182-3.182 3.182 2.122 2.121 2.12-2.121 2.122 2.121 2.122-2.121 2.12-2.122 1.061 1.061 1.061 1.06-3.182 3.183-3.182 3.182-2.121-2.122-2.121 2.122-2.122 2.121 1.06 1.06 1.062 1.061 1.06-1.06 1.06-1.061 1.062 1.06 1.06 1.061-1.06 1.061-1.061 1.06 1.06 1.061 1.061 1.062-1.06 1.06-1.061 1.061-3.182-3.182-3.182-3.182-2.121 2.122-2.122 2.121zm-10.607-14.85 1.061 1.061 1.06-1.06 1.061-1.061-1.06-1.06-1.061-1.062-1.06 1.061-1.061 1.06zm7.425 7.425 2.121 2.121 1.06-1.06 1.062-1.061-2.122-2.121-2.121-2.122 1.06-1.06 1.061-1.06-1.06-1.062-1.061-1.06-1.06 1.06-1.061 1.061 1.06 1.06 1.061 1.061-1.06 1.061-1.061 1.06zm35.002 35.002 1.06 1.06 1.061-1.06 1.06-1.06 1.061 1.06 1.061 1.06 2.121-2.12 2.122-2.122-2.122-2.121-2.121-2.122-1.06 1.06-1.061 1.062 1.06 1.06 1.061 1.06-1.06 1.062-1.061 1.06-1.06-1.06-1.062-1.061-1.06 1.06-1.06 1.061zM55.154 86.974l2.121-2.122-2.121-2.12-2.121 2.12zm19.092 19.092 2.121 2.12 2.121-2.12 2.122-2.122-1.06-1.06-1.062-1.061-1.06 1.06-1.06 1.061-1.062-1.06-1.06-1.061-1.06 1.06-1.062 1.061zm9.546-11.668 1.06 1.061 3.182-3.182 3.182-3.182-2.121-2.121-2.121-2.122 1.06-1.06 1.061-1.06-1.06-1.062-1.061-1.06 1.06-1.06 1.061-1.062-1.06-1.06-1.061-1.06 1.06-1.062 1.061-1.06-1.06-1.06-1.061-1.062 1.06-1.06 1.061-1.06-1.06-1.062-1.061-1.06-3.182 3.182-3.182 3.182 1.06 1.06 1.061 1.061-1.06 1.06-1.061 1.061 3.182 3.182 3.182 3.182-2.122 2.122-2.12 2.121 1.06 1.06 1.06 1.061-1.06 1.061-1.06 1.06zM58.336 64.7l3.182 3.182L64.7 64.7l3.182-3.182-3.182-3.182-3.182-3.182-3.182 3.182-3.182 3.182zm2.121-2.121-1.06-1.061 1.06-1.06 1.06-1.061 1.062 1.06 1.06 1.06-1.06 1.062-1.061 1.06zm31.82 36.062 3.182 3.182 3.182-3.182 3.182-3.182-3.182-3.182-3.182-3.182-3.182 3.182-3.182 3.182zm2.121-2.121-1.059-1.061 1.06-1.06 1.061-1.061 1.06 1.06 1.061 1.061-1.06 1.06-1.061 1.061zm31.82 36.062 3.182 3.182 3.182-3.182 3.182-3.182-3.182-3.182-3.182-3.182-3.182 3.182-3.182 3.182zm2.121-2.121-1.06-1.06 1.06-1.062 1.061-1.06 1.06 1.06 1.061 1.061-1.06 1.06-1.06 1.061zm10.607 6.364 1.06 1.06 3.183-3.182 3.182-3.182-2.122-2.12-2.12-2.122-1.062 1.06-1.06 1.061 1.06 1.06 1.061 1.061-2.121 2.122-2.122 2.121zM71.064 64.699l1.06 1.06 1.061-1.06 1.06-1.06-1.06-1.061-1.06-1.061-1.061 1.06-1.06 1.061zm21.213 21.213 1.06 1.06 1.061-1.06 1.061-1.06-1.06-1.061-1.061-1.06-1.061 1.06-1.06 1.06zm-26.516-30.76 2.12 2.122 1.061-1.06 1.061-1.061-1.06-1.06-1.061-1.061 1.06-1.061 1.061-1.06-4.242-4.243-4.243-4.243-1.06 1.06-1.061 1.061 3.182 3.182 3.182 3.182-1.061 1.06-1.06 1.062zm13.788 13.79 1.06 1.06 1.061-1.06 1.061-1.061-1.06-1.06-1.061-1.061-1.06 1.06-1.062 1.06zm28.638 28.637 4.243 4.243 1.06-1.06 1.06-1.061-1.06-1.061-1.06-1.06 1.06-1.061 1.06-1.061-2.12-2.121-2.122-2.122-1.06 1.061-1.061 1.06-1.06-1.06-1.061-1.06-1.061 1.06-1.06 1.06zM73.185 58.336l3.182 3.182 1.06-1.06 1.061-1.061 3.182 3.182 3.182 3.182 1.061-1.061 1.06-1.06-3.181-3.183-3.182-3.182 2.121-2.121 2.121-2.121-1.06-1.061-1.06-1.06 1.06-1.061 1.06-1.061-2.12-2.121-2.122-2.122 1.06-1.06 1.061-1.061-2.121-2.121-2.122-2.122-2.12 2.122-2.122 2.121 1.06 1.06 1.061 1.061-1.06 1.061-1.061 1.06 1.06 1.061 1.061 1.061 1.06-1.06 1.061-1.061 1.061 1.06 1.06 1.061-2.12 2.121-2.122 2.122-2.121-2.122-2.122-2.121-1.06 1.06-1.06 1.061 1.06 1.06 1.06 1.062-1.06 1.06-1.06 1.06zm4.243-12.728-1.06-1.06 1.06-1.061 1.06-1.061 1.061 1.06 1.06 1.061-1.06 1.061-1.06 1.06zm44.547 61.518 1.061 1.06 2.121-2.12 2.122-2.122-2.122-2.121-2.12-2.121-1.062 1.06-1.06 1.061 1.06 1.06 1.061 1.061-1.06 1.06-1.061 1.062zm-13.788-18.031 2.121 2.121 1.06-1.06 1.062-1.061 1.06 1.06 1.06 1.061 1.062-1.06 1.06-1.061-2.121-2.121-2.121-2.122-1.061 1.061-1.06 1.06-1.061-1.06-1.061-1.06-1.06 1.06-1.061 1.06zm-22.274-30.76 1.06 1.062 1.061-1.061 1.061-1.06-1.06-1.061-1.061-1.061 1.06-1.06 1.061-1.061 1.06 1.06 1.061 1.06-1.06 1.062-1.061 1.06 1.06 1.06 1.061 1.062-1.06 1.06-1.061 1.06 2.121 2.122 2.122 2.122 1.06-1.061 1.061-1.06-1.06-1.061-1.061-1.061 1.06-1.06 1.061-1.061-1.06-1.061-1.061-1.06 1.06-1.061 1.061-1.061-3.182-3.182-3.182-3.182 1.06-1.06 1.061-1.061-1.06-1.061-1.061-1.06-2.121 2.12-2.122 2.122 1.061 1.06 1.06 1.061-1.06 1.06-1.06 1.062 1.06 1.06 1.06 1.06-1.06 1.062-1.06 1.06zm65.761 40.306 1.06 1.06 1.061-1.06 1.061-1.06-1.06-1.061-1.061-1.061-1.061 1.06-1.06 1.061zM37.123 132.582l-1.061-1.06 1.06-1.061 1.061-1.06 1.061 1.06 1.06 1.06-1.06 1.061-1.06 1.06zm48.79 48.79-1.06-1.06 1.06-1.06 1.06-1.062 1.061 1.061 1.061 1.06-1.06 1.061-1.061 1.061zm6.364 6.364-3.182-3.182 2.121-2.12 2.122-2.122 2.121 2.121 2.121 2.121 1.061-1.06 1.06-1.06 1.061 1.06 1.061 1.06-1.06 1.061-1.061 1.06-1.061-1.06-1.06-1.06-1.061 1.06-1.061 1.06 1.06 1.061 1.061 1.061-1.06 1.06-1.061 1.061zm-40.305-48.79-1.06-1.06 1.06-1.061 1.06-1.06 1.061 1.06 1.06 1.06-1.06 1.061-1.06 1.06zm4.243 4.243-1.061-1.061 1.06-1.06 1.061-1.061 1.06 1.06 1.062 1.061-1.061 1.06-1.06 1.061zm33.94 33.94-1.06-1.06 1.06-1.06 1.061-1.061 1.061 1.06 1.06 1.061-1.06 1.06-1.06 1.061zm6.365 2.122-1.061-1.06 1.06-1.061 1.061-1.06 1.061 1.06 1.06 1.06 3.183-3.181 3.182-3.182 1.06 1.06 1.06 1.06 4.244-4.242 4.242-4.242-1.06-1.061-1.061-1.06-1.06 1.06-1.061 1.06-1.061-1.06-1.06-1.06 1.06-1.061 1.06-1.061 1.061 1.06 1.06 1.061 1.062-1.06 1.06-1.061-2.121-2.121-2.121-2.122-1.061 1.06-1.06 1.062-1.061-1.061-1.061-1.06 2.121-2.122 2.122-2.121 1.06 1.06 1.06 1.061 1.062-1.06 1.06-1.061-1.06-1.061-1.061-1.06 1.06-1.061 1.061-1.061 1.06 1.06 1.062 1.061 1.06-1.06 1.06-1.061 1.061 1.06 1.061 1.061 2.121-2.121 2.122-2.121 1.06 1.06 1.061 1.061-2.121 2.121-2.122 2.122-1.06-1.061-1.06-1.06-1.062 1.06-1.06 1.06 1.06 1.061 1.061 1.061 1.06-1.06 1.061-1.061 1.061 1.06 1.06 1.061 1.061-1.06 1.061-1.061 1.06 1.06 1.061 1.061-1.06 1.06-1.06 1.061-1.062-1.06-1.06-1.061-2.122 2.121-2.12 2.122 1.06 1.06 1.06 1.06-1.06 1.062-1.06 1.06-1.062-1.06-1.06-1.061-2.121 2.121-2.122 2.122 1.06 1.06 1.062 1.06-5.304 5.304-5.303 5.303-1.06-1.06-1.061-1.06-1.061 1.06-1.06 1.06 1.06 1.061 1.06 1.06-1.06 1.061-1.06 1.061-2.122-2.121-2.121-2.122-1.061 1.061-1.06 1.06zm21.213-21.213 1.06 1.06 1.061-1.06 1.06-1.06-1.06-1.061-1.06-1.061-1.061 1.06-1.06 1.061zm-48.79-10.607-1.061-1.06 1.06-1.061 1.061-1.06 1.06 1.06 1.061 1.06-1.06 1.061-1.06 1.061zm16.97 8.486-1.06-1.061 2.12-2.121 2.122-2.122 1.06 1.061 1.061 1.06-2.121 2.122-2.121 2.121zM18.031 79.549l-1.06-1.06 1.06-1.061 1.06-1.06 1.061 1.06 1.06 1.06 1.061-1.06 1.061-1.06 3.182 3.181 3.182 3.182 1.06-1.06 1.061-1.061-2.12-2.122-2.122-2.12 1.06-1.062 1.061-1.06 1.06 1.06 1.061 1.061 2.122-2.121 2.121-2.122 1.06 1.061 1.061 1.06-3.182 3.183-3.182 3.182 1.061 1.06 1.06 1.061-3.181 3.182-3.182 3.182-2.122-2.121-2.12-2.122 1.06-1.06 1.06-1.06-2.12-2.122-2.122-2.122-1.06 1.061-1.062 1.06zm6.364-6.364-1.06-1.06 2.12-2.122 2.122-2.121 1.06 1.06 1.061 1.061 1.06-1.06 1.061-1.061-1.06-1.06-1.06-1.061 1.06-1.061 1.06-1.06 1.061 1.06 1.06 1.06-1.06 1.061-1.06 1.06 1.06 1.061 1.06 1.061-1.06 1.06-1.06 1.061-1.061-1.06-1.06-1.06-2.122 2.12-2.122 2.122zm86.974 74.246-1.06-1.06 1.06-1.061 1.06-1.06 1.061 1.06 1.06 1.06-1.06 1.061-1.06 1.061zM49.851 68.942l-3.182-3.181 1.06-1.061 1.061-1.06 3.182 3.181 3.182 3.182-1.06 1.06-1.061 1.061zm82.731 82.732-1.06-1.06 1.06-1.061 1.06-1.061 1.061 1.06 1.061 1.061-1.06 1.061-1.061 1.06zm-32.88-41.366-2.122-2.121 1.061-1.06 1.06-1.061 2.122 2.12 2.121 2.122-1.06 1.06-1.061 1.062zm20.152 11.668-1.06-1.061 2.12-2.121 2.122-2.122 1.06 1.06 1.061 1.062-2.12 2.12-2.122 2.122zm19.092-6.364-1.06-1.061 1.06-1.06 1.06-1.061-1.06-1.061-1.06-1.06 1.06-1.061 1.06-1.061 1.061 1.06 1.061 1.061 1.06-1.06 1.061-1.061-1.06-1.06-1.06-1.061 2.12-2.122 2.122-2.121 1.06 1.06 1.061 1.061-2.121 2.122-2.122 2.12 1.061 1.062 1.06 1.06-3.181 3.182-3.182 3.182zm7.425 7.424-2.122-2.121 1.061-1.06 1.06-1.061 2.122 2.12 2.121 2.122-1.06 1.06-1.061 1.061zm-75.307-96.52-1.06-1.06 1.06-1.061 1.06-1.06 1.061 1.06 1.06 1.06-1.06 1.061-1.06 1.06zm95.46 91.217-1.061-1.06 1.06-1.061 1.06-1.061 1.062 1.06 1.06 1.061-1.06 1.06-1.061 1.062zM77.427 24.395l-1.06-1.06 1.06-1.062 1.06-1.06 1.061 1.06 1.06 1.061 1.061-1.06 1.061-1.061 1.06 1.06 1.061 1.061-1.06 1.06-1.06 1.061-1.062-1.06-1.06-1.06-1.06 1.06-1.062 1.06zm25.456 25.456-1.061-1.061 1.06-1.06 1.061-1.061 1.06 1.06 1.062 1.061 3.182-3.182 3.182-3.182-1.061-1.06-1.06-1.061-1.061 1.06-1.061 1.061-1.06-1.06-1.061-1.061 1.06-1.061 1.06-1.06 1.062 1.06 1.06 1.06 1.06-1.06 1.062-1.06-1.061-1.061-1.06-1.061 2.12-2.121 2.122-2.122-2.121-2.12-2.122-2.122-1.06 1.06-1.061 1.061-2.121-2.121-2.122-2.122 1.06-1.06 1.062-1.06 1.06 1.06 1.06 1.06 2.122-2.12 2.122-2.122-1.061-1.06-1.06-1.062 1.06-1.06 1.06-1.06 3.183 3.181 3.182 3.182-1.061 1.06-1.06 1.061-1.061-1.06-1.061-1.06-1.06 1.06-1.061 1.06 3.182 3.182 3.182 3.182-3.182 3.182-3.182 3.182 1.06 1.061 1.06 1.06 3.183-3.181 3.182-3.182 1.06 1.06 1.061 1.061-1.06 1.06-1.061 1.061 1.06 1.061 1.061 1.06 1.06-1.06 1.061-1.06 2.122 2.12 2.121 2.122 1.06-1.06 1.061-1.061 1.061 1.06 1.06 1.061-1.06 1.06-1.06 1.061-1.061-1.06-1.06-1.061-4.244 4.243-4.242 4.242-1.06-1.06-1.061-1.061-1.061 1.06-1.06 1.061-1.061-1.06-1.061-1.061 3.182-3.182 3.182-3.182-1.06-1.06-1.061-1.061-4.243 4.242-4.243 4.243 2.122 2.121 2.12 2.122 1.062-1.061 1.06-1.06 1.06 1.06 1.062 1.06 1.06-1.06 1.06-1.06 1.061 1.06 1.061 1.06-1.06 1.061-1.061 1.06 1.06 1.062 1.061 1.06 1.06-1.06 1.061-1.061-1.06-1.06-1.06-1.061 2.12-2.122 2.122-2.121 1.06 1.06 1.061 1.061 2.121-2.121 2.122-2.121 1.06 1.06 1.061 1.061 2.121-2.121 2.122-2.122 1.06 1.061 1.061 1.06-1.06 1.061-1.061 1.061 1.06 1.06 1.061 1.061-1.06 1.06-1.061 1.062 1.06 1.06 1.061 1.06 1.06-1.06 1.061-1.06 1.061 1.06 1.06 1.06 1.061-1.06 1.061-1.06 2.121 2.12 2.122 2.122-1.061 1.06-1.06 1.062-1.061-1.061-1.061-1.06-2.121 2.12-2.122 2.122 1.061 1.06 1.06 1.061 1.061-1.06 1.061-1.061 1.06 1.06 1.061 1.061 1.061-1.06 1.06-1.061 1.061 1.06 1.061 1.061 1.06-1.06 1.061-1.061 5.304 5.303 5.303 5.303-3.182 3.182-3.182 3.182-1.06-1.06-1.061-1.06-1.061 1.06-1.06 1.06-1.061-1.06-1.061-1.06 2.121-2.122 2.122-2.122-1.061-1.06-1.06-1.06-5.304 5.302-5.303 5.304-1.061-1.06-1.06-1.062 1.06-1.06 1.06-1.06-1.06-1.062-1.06-1.06-1.061 1.06-1.061 1.061-1.06-1.06-1.061-1.061-1.06 1.06-1.062 1.061-1.06-1.06-1.06-1.061-1.062 1.06-1.06 1.061-1.06-1.06-1.062-1.061-1.06 1.06-1.06 1.061-2.122-2.121-2.122-2.122 1.061-1.06 1.06-1.06-1.06-1.062-1.06-1.06-1.061 1.06-1.06 1.061-1.062-1.06-1.06-1.061 1.06-1.06 1.061-1.061-2.121-2.122-2.121-2.121 1.06-1.06 1.06-1.061-3.181-3.182-3.182-3.182-1.06 1.06-1.061 1.06-1.061-1.06-1.06-1.06-1.061 1.06-1.061 1.06-1.06-1.06-1.061-1.06 1.06-1.061 1.06-1.06-1.06-1.061-1.06-1.061-1.061 1.06-1.06 1.061zM126.217 64.7l3.182 3.182 3.182-3.182 3.182-3.182-3.182-3.182-3.182-3.182-3.182 3.182-3.182 3.182zm2.121-2.121-1.06-1.061 1.06-1.06 1.061-1.061 1.06 1.06 1.061 1.06-1.06 1.062-1.06 1.06zm6.364 10.606 1.061 1.06 1.06-1.06 1.061-1.06 1.061 1.06 1.06 1.06 1.061-1.06 1.061-1.06-1.06-1.061-1.061-1.06-1.06 1.06-1.062 1.06-1.06-1.06-1.06-1.06 1.06-1.062 1.06-1.06-1.06-1.06-1.06-1.061-1.062 1.06-1.06 1.06 1.06 1.061 1.061 1.061-1.06 1.06-1.061 1.061zm6.364-6.364 1.061 1.06 1.06-1.06 1.061-1.06-1.06-1.061-1.06-1.06-1.062 1.06-1.06 1.06zm4.243 4.243 1.06 1.06 2.122-2.12 2.121-2.122 1.061 1.06 1.06 1.061 2.122-2.121 2.121-2.121-1.06-1.061-1.061-1.06-2.121 2.12-2.122 2.122-1.06-1.06-1.061-1.061-2.121 2.12-2.122 2.122zm-12.728-16.97 1.06 1.06 1.061-1.06 1.061-1.061-1.06-1.061-1.061-1.06-1.06 1.06-1.062 1.06zm5.303 5.303 2.122 2.12 1.06-1.06 1.061-1.06-2.121-2.122-2.122-2.121-1.06 1.06-1.06 1.061zm26.517 51.972-1.06-1.06 1.06-1.061 1.06-1.061-1.06-1.06-1.06-1.061 1.06-1.061 1.06-1.06 1.061 1.06 1.06 1.06-1.06 1.061-1.06 1.06 1.06 1.062 1.06 1.06-1.06 1.06-1.06 1.062zM97.579 40.305l-4.242-4.243 1.06-1.06 1.061-1.061 1.06 1.06 1.061 1.061 1.061-1.06 1.06-1.061-1.06-1.06-1.06-1.062 1.06-1.06 1.06-1.06 1.061 1.06 1.061 1.06 1.06-1.06 1.061-1.06 1.06 1.06 1.062 1.06 1.06-1.06 1.06-1.06 1.062 1.06 1.06 1.06-3.182 3.182-3.182 3.182-1.06-1.06-1.061-1.061 1.06-1.06 1.061-1.061-1.06-1.06-1.061-1.062-1.06 1.061-1.061 1.06 1.06 1.061 1.061 1.061-1.06 1.06-1.061 1.061 2.121 2.122 2.121 2.121-1.06 1.06-1.061 1.061zm73.186 73.185-1.06-1.06 1.06-1.061 1.06-1.06 1.061 1.06 1.06 1.06-1.06 1.061-1.06 1.06zM88.034 22.273l-7.424-7.424 7.424-7.425L95.459 0l7.425 7.424 7.424 7.425-7.424 7.424-7.425 7.426zm2.122-2.12 5.303 5.301 5.303-5.303 5.304-5.303-5.304-5.303-5.303-5.304-5.303 5.304-5.304 5.303zm2.121-2.122-3.182-3.182 3.182-3.182 3.182-3.182 3.182 3.182 3.182 3.182-3.182 3.182-3.182 3.182zm76.368 84.853-7.426-7.425 7.425-7.425 7.424-7.424 7.425 7.424 7.424 7.425-7.424 7.425-7.425 7.424zm2.12-2.122 5.304 5.304 5.303-5.304 5.304-5.303-5.304-5.303-5.303-5.304-5.303 5.304-5.303 5.303zm2.122-2.121-3.182-3.182 3.182-3.182 3.182-3.182 3.182 3.182 3.182 3.182-3.182 3.182-3.182 3.182zm-51.972-68.943-2.121-2.121 1.06-1.06 1.06-1.062 2.122 2.122 2.121 2.121-1.06 1.06-1.06 1.061zm5.303 5.303-1.06-1.06 1.06-1.06 1.06-1.062 1.061 1.061 1.061 1.06-1.06 1.061-1.061 1.061z" style="fill:#000"/><path style="fill:#fff;fill-rule:evenodd;stroke:none;stroke-width:1.22577;stroke-miterlimit:10" d="m95.459 67.882 27.63 27.577-27.63 27.577L67.882 95.46Z"/><path style="fill:#1d9bf0;stroke-width:.0975" d="M105.002 90.563c.015.211.015.423.015.636 0 6.507-4.953 14.01-14.01 14.01v-.004a13.938 13.938 0 0 1-7.548-2.207 9.887 9.887 0 0 0 7.287-2.04 4.93 4.93 0 0 1-4.6-3.42 4.908 4.908 0 0 0 2.224-.085 4.924 4.924 0 0 1-3.95-4.826v-.063a4.893 4.893 0 0 0 2.235.617 4.93 4.93 0 0 1-1.524-6.575 13.975 13.975 0 0 0 10.147 5.144 4.927 4.927 0 0 1 1.425-4.704 4.93 4.93 0 0 1 6.966.213 9.88 9.88 0 0 0 3.127-1.195 4.942 4.942 0 0 1-2.164 2.723 9.792 9.792 0 0 0 2.827-.775 10.003 10.003 0 0 1-2.457 2.55z"/></svg>